<svg width="32" height="32" viewBox="0 0 32 32" fill="none" xmlns="http://www.w3.org/2000/svg">
<path fill-rule="evenodd" clip-rule="evenodd" d="M31.988 10.946C31.985 10.925 31.98 10.906 31.977 10.886C31.97 10.847 31.963 10.808 31.953 10.771C31.947 10.748 31.938 10.726 31.931 10.704C31.92 10.67 31.909 10.637 31.896 10.604C31.887 10.581 31.876 10.558 31.865 10.537C31.851 10.505 31.836 10.475 31.818 10.446C31.806 10.424 31.792 10.403 31.779 10.382C31.761 10.353 31.742 10.325 31.721 10.298C31.706 10.278 31.69 10.258 31.674 10.239C31.652 10.213 31.629 10.188 31.605 10.164C31.587 10.146 31.57 10.127 31.551 10.111C31.525 10.088 31.499 10.066 31.473 10.045C31.452 10.029 31.432 10.013 31.411 9.998C31.403 9.993 31.396 9.986 31.388 9.981L16.763 0.231C16.301 -0.077 15.7 -0.077 15.237 0.231L0.612996 9.981C0.604996 9.986 0.598007 9.993 0.590007 9.998C0.568007 10.013 0.547995 10.029 0.527995 10.045C0.500995 10.066 0.474992 10.088 0.449992 10.111C0.430992 10.127 0.41302 10.146 0.39502 10.164C0.37102 10.188 0.347986 10.213 0.326986 10.239C0.309986 10.258 0.294012 10.278 0.279012 10.298C0.259012 10.325 0.240005 10.353 0.222005 10.382C0.208005 10.403 0.195007 10.424 0.182007 10.446C0.165007 10.475 0.15001 10.505 0.13501 10.537C0.12501 10.558 0.11398 10.581 0.10498 10.604C0.0909805 10.637 0.0800104 10.67 0.0690104 10.704C0.0620104 10.726 0.0540143 10.748 0.0480143 10.771C0.0380143 10.808 0.0310072 10.847 0.0240072 10.886C0.0200072 10.906 0.0149801 10.925 0.0129801 10.946C0.00498014 11.004 0 11.064 0 11.125V20.875C0 20.935 0.00498014 20.995 0.0129801 21.055C0.0149801 21.074 0.0200072 21.094 0.0240072 21.114C0.0310072 21.153 0.0380143 21.191 0.0480143 21.229C0.0540143 21.252 0.0620104 21.274 0.0690104 21.296C0.0800104 21.329 0.0909805 21.363 0.10498 21.397C0.11398 21.419 0.12501 21.441 0.13501 21.463C0.15001 21.494 0.165007 21.524 0.182007 21.555C0.195007 21.576 0.208005 21.597 0.222005 21.618C0.240005 21.647 0.259012 21.674 0.279012 21.701C0.294012 21.722 0.309986 21.742 0.326986 21.761C0.347986 21.786 0.37102 21.812 0.39502 21.835C0.41302 21.854 0.430992 21.872 0.449992 21.889C0.474992 21.912 0.500995 21.934 0.527995 21.955C0.547995 21.971 0.568007 21.987 0.590007 22.002C0.598007 22.007 0.604996 22.014 0.612996 22.019L15.237 31.769C15.468 31.923 15.734 32 16 32C16.266 32 16.532 31.923 16.763 31.769L31.388 22.019C31.396 22.014 31.403 22.007 31.411 22.002C31.432 21.987 31.452 21.971 31.473 21.955C31.499 21.934 31.525 21.912 31.551 21.889C31.57 21.872 31.587 21.854 31.605 21.835C31.629 21.812 31.652 21.786 31.674 21.761C31.69 21.742 31.706 21.722 31.721 21.701C31.742 21.674 31.761 21.647 31.779 21.618C31.792 21.597 31.806 21.576 31.818 21.555C31.836 21.524 31.851 21.494 31.865 21.463C31.876 21.441 31.887 21.419 31.896 21.397C31.909 21.363 31.92 21.329 31.931 21.296C31.938 21.274 31.947 21.252 31.953 21.229C31.963 21.191 31.97 21.153 31.977 21.114C31.98 21.094 31.985 21.074 31.988 21.055C31.996 20.995 32 20.935 32 20.875V11.125C32 11.064 31.996 11.004 31.988 10.946ZM17.375 3.945L28.149 11.127L23.337 14.346L17.375 10.358V3.945ZM14.625 3.945V10.358L8.66398 14.346L3.85099 11.127L14.625 3.945ZM2.75 13.699L6.191 16L2.75 18.301V13.699ZM14.625 28.055L3.85099 20.873L8.66398 17.655L14.625 21.642V28.055ZM16 19.253L11.137 16L16 12.747L20.864 16L16 19.253ZM17.375 28.055V21.642L23.337 17.655L28.149 20.873L17.375 28.055ZM29.25 18.301L25.81 16L29.25 13.699V18.301Z" fill="white"/>
</svg>
