<svg width="32" height="32" viewBox="0 0 32 32" fill="none" xmlns="http://www.w3.org/2000/svg">
<path d="M32 16.0874C32 20.3114 31.2946 23.7486 30.4174 23.7486C29.5402 23.7486 28.8348 20.3114 28.8348 16.0874C28.8348 11.8634 29.5402 8.42619 30.4174 8.42619C31.2946 8.42619 32 11.8634 32 16.0874ZM27.9576 16.0874C27.9576 20.8043 25.9492 24.6413 23.4627 24.6413C20.9762 24.6413 18.9539 20.8043 18.9539 16.0874C18.9539 11.3705 20.9751 7.53348 23.4627 7.53348C25.9502 7.53348 27.9576 11.3705 27.9576 16.0874ZM18.0884 16.0874C18.0735 21.0801 14.03 25.1213 9.04422 25.1213C4.04989 25.1213 0 21.0652 0 16.0607C0 11.0562 4.04882 7 9.04422 7C11.5531 7 13.8241 8.02313 15.4621 9.67704L15.4632 9.67811C17.0864 11.3149 18.0884 13.5707 18.0884 16.0607C18.0884 16.0703 18.0884 16.0788 18.0884 16.0874Z" fill="white"/>
</svg>
