<svg width="32" height="32" viewBox="0 0 32 32" fill="none" xmlns="http://www.w3.org/2000/svg">
<path d="M2.66667 32C1.95556 32 1.33333 31.7333 0.8 31.2C0.266667 30.6667 0 30.0444 0 29.3333V2.66667C0 1.95556 0.266667 1.33333 0.8 0.8C1.33333 0.266667 1.95556 0 2.66667 0H15.0667V2.66667H2.66667V29.3333H29.3333V16.9333H32V29.3333C32 30.0444 31.7333 30.6667 31.2 31.2C30.6667 31.7333 30.0444 32 29.3333 32H2.66667ZM11.6444 22.2667L9.77778 20.3556L27.4667 2.66667H17.7333V0H32V14.2667H29.3333V4.57778L11.6444 22.2667Z" fill="black"/>
</svg>
