<svg width="32" height="33" viewBox="0 0 32 33" fill="none" xmlns="http://www.w3.org/2000/svg">
<path fill-rule="evenodd" clip-rule="evenodd" d="M16 1C7.16 1 0 8.16 0 17C0 24.08 4.58 30.06 10.94 32.18C11.74 32.32 12.04 31.84 12.04 31.42C12.04 31.04 12.02 29.78 12.02 28.44C8 29.18 6.96 27.46 6.64 26.56C6.46 26.1 5.68 24.68 5 24.3C4.44 24 3.64 23.26 4.98 23.24C6.24 23.22 7.14 24.4 7.44 24.88C8.88 27.3 11.18 26.62 12.1 26.2C12.24 25.16 12.66 24.46 13.12 24.06C9.56 23.66 5.84 22.28 5.84 16.16C5.84 14.42 6.46 12.98 7.48 11.86C7.32 11.46 6.76 9.82 7.64 7.62C7.64 7.62 8.98 7.2 12.04 9.26C13.32 8.9 14.68 8.72 16.04 8.72C17.4 8.72 18.76 8.9 20.04 9.26C23.1 7.18 24.44 7.62 24.44 7.62C25.32 9.82 24.76 11.46 24.6 11.86C25.62 12.98 26.24 14.4 26.24 16.16C26.24 22.3 22.5 23.66 18.94 24.06C19.52 24.56 20.02 25.52 20.02 27.02C20.02 29.16 20 30.88 20 31.42C20 31.84 20.3 32.34 21.1 32.18C27.42 30.06 32 24.06 32 17C32 8.16 24.84 1 16 1Z" fill="black"/>
</svg>
