<svg width="32" height="32" viewBox="0 0 32 32" fill="none" xmlns="http://www.w3.org/2000/svg">
<path fill-rule="evenodd" clip-rule="evenodd" d="M0 8.88889C0 3.97969 3.97969 0 8.88889 0H23.1111C28.0202 0 32 3.97968 32 8.88889V23.1111C32 28.0202 28.0202 32 23.1111 32H8.88889C3.97968 32 0 28.0202 0 23.1111V8.88889ZM8.88889 3.55556C5.94337 3.55556 3.55556 5.94337 3.55556 8.88889V23.1111C3.55556 26.0566 5.94338 28.4444 8.88889 28.4444H23.1111C26.0566 28.4444 28.4444 26.0566 28.4444 23.1111V8.88889C28.4444 5.94338 26.0566 3.55556 23.1111 3.55556H8.88889ZM22.4889 7.46667C22.4889 6.48483 23.2848 5.68889 24.2667 5.68889H24.2844C25.2663 5.68889 26.0622 6.48483 26.0622 7.46667C26.0622 8.44851 25.2663 9.24444 24.2844 9.24444H24.2667C23.2848 9.24444 22.4889 8.44851 22.4889 7.46667ZM16 11.1111C13.2999 11.1111 11.1111 13.2999 11.1111 16C11.1111 18.7001 13.2999 20.8889 16 20.8889C18.7001 20.8889 20.8889 18.7001 20.8889 16C20.8889 13.2999 18.7001 11.1111 16 11.1111ZM7.55556 16C7.55556 11.3363 11.3363 7.55556 16 7.55556C20.6638 7.55556 24.4444 11.3363 24.4444 16C24.4444 20.6638 20.6638 24.4444 16 24.4444C11.3363 24.4444 7.55556 20.6638 7.55556 16Z" fill="black"/>
</svg>
