<svg width="32" height="33" viewBox="0 0 32 33" fill="none" xmlns="http://www.w3.org/2000/svg">
<path d="M31.9109 14.5408C31.9547 15.0247 31.985 15.5129 31.985 16.0086C31.985 15.5129 31.9547 15.025 31.9109 14.5408Z" fill="black"/>
<path d="M8.19598 14.4563C8.19598 14.4563 3.75054 30.8355 21.5683 30.978C27.1587 28.8969 31.278 23.7947 31.9023 17.6435C31.9455 17.218 31.9583 16.784 31.9679 16.3492C31.9697 16.2348 31.985 16.1236 31.985 16.0085C31.985 15.5132 31.9547 15.0247 31.9109 14.5408C27.2035 33.0719 6.3786 25.8134 8.19598 14.4563Z" fill="black"/>
<path d="M17.4089 8.37666C17.4089 8.37666 0.819546 3.74379 1.07469 21.8327C1.92508 24.0186 3.24478 25.9913 4.9407 27.6116C5.01197 27.6789 5.08574 27.7427 5.15772 27.809C5.63743 28.2513 6.14366 28.6638 6.67362 29.0445C6.75594 29.1033 6.83326 29.1681 6.91594 29.2255C7.47651 29.6088 8.06106 29.9559 8.66596 30.2646C8.84164 30.3551 9.02231 30.4378 9.20048 30.5222C9.72103 30.7673 10.2546 30.9838 10.7987 31.1708C10.9323 31.2164 11.0599 31.2734 11.1953 31.3158C11.8476 31.5153 12.5122 31.6724 13.1848 31.7862C13.3883 31.8218 13.5939 31.8518 13.7999 31.8803C14.4976 31.981 15.2013 32.0357 15.9062 32.0438C15.9333 32.0438 15.9593 32.0481 15.9864 32.0481C16.5181 32.0481 17.043 32.0196 17.5607 31.9686C-1.0527 27.5296 6.02222 6.71608 17.4089 8.37666Z" fill="black"/>
<path d="M23.8752 16.955C23.8752 16.955 27.8 0.408374 10.133 1.14744C4.20875 3.48757 0.0148926 9.25185 0.0148926 16.0071C0.0204017 16.7346 0.0752866 17.4608 0.179169 18.1808C3.8973 -0.539511 25.0797 5.52339 23.8752 16.955Z" fill="black"/>
<path d="M15.3924 24.0755C15.3924 24.0755 32.0106 26.245 30.9705 10.4449C28.7087 4.36311 22.8689 0.0220947 16 0.0220947C15.0273 0.0258534 14.057 0.118052 13.1011 0.297551C31.6183 2.57069 26.8055 24.2373 15.3924 24.0755Z" fill="black"/>
<path d="M20.6132 16.0089C20.6132 16.8945 20.3506 17.7603 19.8585 18.4966C19.3665 19.233 18.6671 19.8069 17.8489 20.1457C17.0306 20.4846 16.1303 20.5731 15.2617 20.4003C14.3931 20.2274 13.5953 19.8008 12.9691 19.1745C12.343 18.5481 11.9167 17.7502 11.744 16.8816C11.5715 16.0129 11.6603 15.1126 11.9994 14.2944C12.3385 13.4763 12.9127 12.7771 13.6492 12.2853C14.3857 11.7935 15.2515 11.5311 16.1371 11.5314C17.3244 11.5317 18.463 12.0036 19.3024 12.8432C20.1418 13.6829 20.6133 14.8216 20.6132 16.0089Z" fill="black"/>
</svg>
